<mxfile host="app.diagrams.net" modified="2022-07-27T22:31:58.346Z" agent="5.0 (Windows)" etag="rTaPBs2n9PFbzhXl6vHx" version="20.2.0" type="github">
  <diagram id="N9xPI-fTooEz0Rg_5kH3" name="Page-1">
    <mxGraphModel dx="1185" dy="658" grid="1" gridSize="10" guides="1" tooltips="1" connect="1" arrows="1" fold="1" page="1" pageScale="1" pageWidth="1100" pageHeight="850" math="0" shadow="0">
      <root>
        <mxCell id="0" />
        <mxCell id="1" parent="0" />
        <mxCell id="XL8QMf_2bZI47EtoBm4p-1" value="DB" style="shape=datastore;whiteSpace=wrap;html=1;" vertex="1" parent="1">
          <mxGeometry x="160" y="520" width="50" height="50" as="geometry" />
        </mxCell>
        <mxCell id="XL8QMf_2bZI47EtoBm4p-6" value="Discord Bot" style="swimlane;fontColor=#000000;strokeColor=#000000;fillColor=none;" vertex="1" parent="1">
          <mxGeometry x="120" y="40" width="920" height="320" as="geometry">
            <mxRectangle x="160" y="40" width="110" height="30" as="alternateBounds" />
          </mxGeometry>
        </mxCell>
        <mxCell id="XL8QMf_2bZI47EtoBm4p-15" value="Music Bot" style="swimlane;fontColor=#000000;strokeColor=#000000;fillColor=none;dashed=1;" vertex="1" parent="XL8QMf_2bZI47EtoBm4p-6">
          <mxGeometry x="20" y="40" width="220" height="200" as="geometry" />
        </mxCell>
        <mxCell id="XL8QMf_2bZI47EtoBm4p-47" value="Add song, &lt;br&gt;skip, &lt;br&gt;kill" style="edgeStyle=orthogonalEdgeStyle;rounded=0;orthogonalLoop=1;jettySize=auto;html=1;exitX=0.5;exitY=1;exitDx=0;exitDy=0;entryX=0.5;entryY=0;entryDx=0;entryDy=0;fontColor=#000000;align=right;" edge="1" parent="XL8QMf_2bZI47EtoBm4p-15" source="XL8QMf_2bZI47EtoBm4p-34" target="XL8QMf_2bZI47EtoBm4p-35">
          <mxGeometry x="-0.1429" relative="1" as="geometry">
            <mxPoint as="offset" />
          </mxGeometry>
        </mxCell>
        <mxCell id="XL8QMf_2bZI47EtoBm4p-34" value="Music Commands" style="rounded=0;whiteSpace=wrap;html=1;fontColor=#000000;strokeColor=#000000;fillColor=none;" vertex="1" parent="XL8QMf_2bZI47EtoBm4p-15">
          <mxGeometry x="20" y="30" width="80" height="40" as="geometry" />
        </mxCell>
        <mxCell id="XL8QMf_2bZI47EtoBm4p-48" style="rounded=0;orthogonalLoop=1;jettySize=auto;html=1;exitX=0.85;exitY=0.05;exitDx=0;exitDy=0;exitPerimeter=0;entryX=0;entryY=0.5;entryDx=0;entryDy=0;fontColor=#000000;dashed=1;" edge="1" parent="XL8QMf_2bZI47EtoBm4p-15" source="XL8QMf_2bZI47EtoBm4p-35" target="XL8QMf_2bZI47EtoBm4p-36">
          <mxGeometry relative="1" as="geometry" />
        </mxCell>
        <mxCell id="XL8QMf_2bZI47EtoBm4p-80" value="on&lt;br&gt;update" style="edgeLabel;html=1;align=center;verticalAlign=middle;resizable=0;points=[];fontColor=#000000;" vertex="1" connectable="0" parent="XL8QMf_2bZI47EtoBm4p-48">
          <mxGeometry x="-0.1063" relative="1" as="geometry">
            <mxPoint x="-9" y="-18" as="offset" />
          </mxGeometry>
        </mxCell>
        <mxCell id="XL8QMf_2bZI47EtoBm4p-35" value="In-memory queue" style="shape=cylinder;whiteSpace=wrap;html=1;boundedLbl=1;backgroundOutline=1;fontColor=#000000;strokeColor=#000000;fillColor=none;" vertex="1" parent="XL8QMf_2bZI47EtoBm4p-15">
          <mxGeometry x="27.5" y="140" width="65" height="50" as="geometry" />
        </mxCell>
        <mxCell id="XL8QMf_2bZI47EtoBm4p-36" value="Sync to DB" style="rounded=0;whiteSpace=wrap;html=1;fontColor=#000000;strokeColor=#000000;fillColor=none;" vertex="1" parent="XL8QMf_2bZI47EtoBm4p-15">
          <mxGeometry x="120" y="90" width="80" height="40" as="geometry" />
        </mxCell>
        <mxCell id="XL8QMf_2bZI47EtoBm4p-16" value="Event Counter" style="swimlane;dashed=1;fontColor=#000000;strokeColor=#000000;fillColor=none;" vertex="1" parent="XL8QMf_2bZI47EtoBm4p-6">
          <mxGeometry x="480" y="40" width="200" height="200" as="geometry" />
        </mxCell>
        <mxCell id="XL8QMf_2bZI47EtoBm4p-71" style="edgeStyle=none;rounded=0;orthogonalLoop=1;jettySize=auto;html=1;exitX=0;exitY=0.5;exitDx=0;exitDy=0;entryX=1;entryY=1;entryDx=0;entryDy=0;dashed=1;fontColor=#000000;endArrow=none;endFill=0;" edge="1" parent="XL8QMf_2bZI47EtoBm4p-16" source="XL8QMf_2bZI47EtoBm4p-66" target="XL8QMf_2bZI47EtoBm4p-70">
          <mxGeometry relative="1" as="geometry" />
        </mxCell>
        <mxCell id="XL8QMf_2bZI47EtoBm4p-66" value="Increment counter" style="rounded=0;whiteSpace=wrap;html=1;fontColor=#000000;strokeColor=#000000;fillColor=none;" vertex="1" parent="XL8QMf_2bZI47EtoBm4p-16">
          <mxGeometry x="100" y="40" width="80" height="40" as="geometry" />
        </mxCell>
        <mxCell id="XL8QMf_2bZI47EtoBm4p-72" style="edgeStyle=none;rounded=0;orthogonalLoop=1;jettySize=auto;html=1;exitX=0;exitY=0.5;exitDx=0;exitDy=0;entryX=0;entryY=1;entryDx=0;entryDy=0;dashed=1;fontColor=#000000;endArrow=none;endFill=0;" edge="1" parent="XL8QMf_2bZI47EtoBm4p-16" source="XL8QMf_2bZI47EtoBm4p-67" target="XL8QMf_2bZI47EtoBm4p-70">
          <mxGeometry relative="1" as="geometry" />
        </mxCell>
        <mxCell id="XL8QMf_2bZI47EtoBm4p-67" value="Get count" style="rounded=0;whiteSpace=wrap;html=1;fontColor=#000000;strokeColor=#000000;fillColor=none;" vertex="1" parent="XL8QMf_2bZI47EtoBm4p-16">
          <mxGeometry x="100" y="90" width="80" height="40" as="geometry" />
        </mxCell>
        <mxCell id="XL8QMf_2bZI47EtoBm4p-68" value="Create new counter" style="rounded=0;whiteSpace=wrap;html=1;fontColor=#000000;strokeColor=#000000;fillColor=none;" vertex="1" parent="XL8QMf_2bZI47EtoBm4p-16">
          <mxGeometry x="100" y="140" width="80" height="40" as="geometry" />
        </mxCell>
        <mxCell id="XL8QMf_2bZI47EtoBm4p-70" value="" style="ellipse;whiteSpace=wrap;html=1;aspect=fixed;fontColor=#000000;strokeColor=#000000;fillColor=none;" vertex="1" parent="XL8QMf_2bZI47EtoBm4p-16">
          <mxGeometry x="61" y="109" width="1" height="1" as="geometry" />
        </mxCell>
        <mxCell id="XL8QMf_2bZI47EtoBm4p-17" value="Moderation Workflows" style="swimlane;dashed=1;fontColor=#000000;strokeColor=#000000;fillColor=none;" vertex="1" parent="XL8QMf_2bZI47EtoBm4p-6">
          <mxGeometry x="260" y="40" width="200" height="200" as="geometry" />
        </mxCell>
        <mxCell id="XL8QMf_2bZI47EtoBm4p-100" value="TBD" style="text;html=1;align=center;verticalAlign=middle;resizable=0;points=[];autosize=1;strokeColor=none;fillColor=none;fontColor=#000000;" vertex="1" parent="XL8QMf_2bZI47EtoBm4p-17">
          <mxGeometry x="75" y="80" width="50" height="30" as="geometry" />
        </mxCell>
        <mxCell id="XL8QMf_2bZI47EtoBm4p-20" value="Server Configuration" style="swimlane;dashed=1;fontColor=#000000;strokeColor=#000000;fillColor=none;" vertex="1" parent="XL8QMf_2bZI47EtoBm4p-6">
          <mxGeometry x="700" y="40" width="200" height="200" as="geometry" />
        </mxCell>
        <mxCell id="XL8QMf_2bZI47EtoBm4p-37" value="Set bot&#39;s channel perms (whitelist/blacklist/default)" style="rounded=0;whiteSpace=wrap;html=1;fontColor=#000000;strokeColor=#000000;fillColor=none;" vertex="1" parent="XL8QMf_2bZI47EtoBm4p-20">
          <mxGeometry x="20" y="40" width="160" height="40" as="geometry" />
        </mxCell>
        <mxCell id="XL8QMf_2bZI47EtoBm4p-38" value="Toggle bot logging (errors, deploys, info from features)" style="rounded=0;whiteSpace=wrap;html=1;fontColor=#000000;strokeColor=#000000;fillColor=none;" vertex="1" parent="XL8QMf_2bZI47EtoBm4p-20">
          <mxGeometry x="20" y="90" width="160" height="40" as="geometry" />
        </mxCell>
        <mxCell id="XL8QMf_2bZI47EtoBm4p-39" value="Set global integrations (spotify playlist)" style="rounded=0;whiteSpace=wrap;html=1;fontColor=#000000;strokeColor=#000000;fillColor=none;" vertex="1" parent="XL8QMf_2bZI47EtoBm4p-20">
          <mxGeometry x="20" y="140" width="160" height="40" as="geometry" />
        </mxCell>
        <mxCell id="XL8QMf_2bZI47EtoBm4p-43" value="VC Dispatcher" style="rounded=0;whiteSpace=wrap;html=1;fontColor=#000000;strokeColor=#000000;fillColor=none;" vertex="1" parent="XL8QMf_2bZI47EtoBm4p-6">
          <mxGeometry x="20" y="260" width="90" height="50" as="geometry" />
        </mxCell>
        <mxCell id="XL8QMf_2bZI47EtoBm4p-44" style="edgeStyle=orthogonalEdgeStyle;rounded=0;orthogonalLoop=1;jettySize=auto;html=1;exitX=0;exitY=0.25;exitDx=0;exitDy=0;fontColor=#000000;" edge="1" parent="XL8QMf_2bZI47EtoBm4p-6" source="XL8QMf_2bZI47EtoBm4p-34">
          <mxGeometry relative="1" as="geometry">
            <mxPoint x="19" y="280" as="targetPoint" />
            <Array as="points">
              <mxPoint x="40" y="90" />
              <mxPoint x="-50" y="90" />
              <mxPoint x="-50" y="280" />
              <mxPoint x="19" y="280" />
            </Array>
          </mxGeometry>
        </mxCell>
        <mxCell id="XL8QMf_2bZI47EtoBm4p-45" value="Pause, &lt;br&gt;resume, &lt;br&gt;set volume,&lt;br&gt;play audio" style="edgeLabel;html=1;align=center;verticalAlign=middle;resizable=0;points=[];fontColor=#000000;" vertex="1" connectable="0" parent="XL8QMf_2bZI47EtoBm4p-44">
          <mxGeometry x="0.0701" y="5" relative="1" as="geometry">
            <mxPoint x="-35" y="-13" as="offset" />
          </mxGeometry>
        </mxCell>
        <mxCell id="XL8QMf_2bZI47EtoBm4p-54" style="edgeStyle=none;rounded=0;orthogonalLoop=1;jettySize=auto;html=1;exitX=0;exitY=0.5;exitDx=0;exitDy=0;entryX=1;entryY=0.5;entryDx=0;entryDy=0;fontColor=#000000;" edge="1" parent="1" source="XL8QMf_2bZI47EtoBm4p-21" target="XL8QMf_2bZI47EtoBm4p-53">
          <mxGeometry relative="1" as="geometry" />
        </mxCell>
        <mxCell id="XL8QMf_2bZI47EtoBm4p-55" value="OAuth2" style="edgeLabel;html=1;align=center;verticalAlign=middle;resizable=0;points=[];fontColor=#000000;" vertex="1" connectable="0" parent="XL8QMf_2bZI47EtoBm4p-54">
          <mxGeometry x="-0.5085" y="2" relative="1" as="geometry">
            <mxPoint x="-33" y="-12" as="offset" />
          </mxGeometry>
        </mxCell>
        <mxCell id="XL8QMf_2bZI47EtoBm4p-21" value="" style="shape=image;html=1;verticalAlign=top;verticalLabelPosition=bottom;labelBackgroundColor=#ffffff;imageAspect=0;aspect=fixed;image=https://cdn1.iconfinder.com/data/icons/unicons-line-vol-3/24/discord-128.png;fontColor=#000000;strokeColor=#000000;fillColor=none;" vertex="1" parent="1">
          <mxGeometry x="835" y="690" width="60" height="60" as="geometry" />
        </mxCell>
        <mxCell id="XL8QMf_2bZI47EtoBm4p-33" value="" style="shape=image;html=1;verticalAlign=top;verticalLabelPosition=bottom;labelBackgroundColor=#ffffff;imageAspect=0;aspect=fixed;image=https://cdn3.iconfinder.com/data/icons/social-media-2068/64/_spotify-128.png;fontColor=#000000;strokeColor=#000000;fillColor=none;" vertex="1" parent="1">
          <mxGeometry x="840" y="620" width="50" height="50" as="geometry" />
        </mxCell>
        <mxCell id="XL8QMf_2bZI47EtoBm4p-49" style="edgeStyle=none;rounded=0;orthogonalLoop=1;jettySize=auto;html=1;exitX=0.25;exitY=1;exitDx=0;exitDy=0;entryX=0.5;entryY=0;entryDx=0;entryDy=0;dashed=1;fontColor=#000000;" edge="1" parent="1" source="XL8QMf_2bZI47EtoBm4p-36" target="XL8QMf_2bZI47EtoBm4p-1">
          <mxGeometry relative="1" as="geometry" />
        </mxCell>
        <mxCell id="XL8QMf_2bZI47EtoBm4p-75" value="Music (PUT)" style="edgeLabel;html=1;align=center;verticalAlign=middle;resizable=0;points=[];fontColor=#000000;" vertex="1" connectable="0" parent="XL8QMf_2bZI47EtoBm4p-49">
          <mxGeometry x="0.4328" relative="1" as="geometry">
            <mxPoint x="-32" y="-7" as="offset" />
          </mxGeometry>
        </mxCell>
        <mxCell id="XL8QMf_2bZI47EtoBm4p-58" style="edgeStyle=none;rounded=0;orthogonalLoop=1;jettySize=auto;html=1;exitX=0;exitY=0.5;exitDx=0;exitDy=0;entryX=1;entryY=0.5;entryDx=0;entryDy=0;fontColor=#000000;" edge="1" parent="1" source="XL8QMf_2bZI47EtoBm4p-52" target="XL8QMf_2bZI47EtoBm4p-34">
          <mxGeometry relative="1" as="geometry">
            <Array as="points">
              <mxPoint x="350" y="470" />
              <mxPoint x="350" y="130" />
            </Array>
          </mxGeometry>
        </mxCell>
        <mxCell id="XL8QMf_2bZI47EtoBm4p-73" style="edgeStyle=none;rounded=0;orthogonalLoop=1;jettySize=auto;html=1;exitX=0;exitY=0.5;exitDx=0;exitDy=0;dashed=1;fontColor=#000000;endArrow=none;endFill=0;" edge="1" parent="1" source="XL8QMf_2bZI47EtoBm4p-68">
          <mxGeometry relative="1" as="geometry">
            <mxPoint x="660" y="190" as="targetPoint" />
          </mxGeometry>
        </mxCell>
        <mxCell id="XL8QMf_2bZI47EtoBm4p-74" style="edgeStyle=none;rounded=0;orthogonalLoop=1;jettySize=auto;html=1;exitX=0.5;exitY=0;exitDx=0;exitDy=0;dashed=1;fontColor=#000000;endArrow=classic;endFill=1;entryX=0.85;entryY=0.05;entryDx=0;entryDy=0;entryPerimeter=0;" edge="1" parent="1" source="XL8QMf_2bZI47EtoBm4p-70" target="XL8QMf_2bZI47EtoBm4p-1">
          <mxGeometry relative="1" as="geometry">
            <mxPoint x="330" y="370" as="targetPoint" />
            <Array as="points">
              <mxPoint x="660" y="310" />
              <mxPoint x="310" y="310" />
            </Array>
          </mxGeometry>
        </mxCell>
        <mxCell id="XL8QMf_2bZI47EtoBm4p-76" value="Counter (GET/POST)" style="edgeLabel;html=1;align=center;verticalAlign=middle;resizable=0;points=[];fontColor=#000000;" vertex="1" connectable="0" parent="XL8QMf_2bZI47EtoBm4p-74">
          <mxGeometry x="0.0017" y="-3" relative="1" as="geometry">
            <mxPoint y="13" as="offset" />
          </mxGeometry>
        </mxCell>
        <mxCell id="XL8QMf_2bZI47EtoBm4p-32" value="Web Interface" style="swimlane;fontColor=#000000;strokeColor=#000000;fillColor=none;" vertex="1" parent="1">
          <mxGeometry x="360" y="400" width="360" height="360" as="geometry" />
        </mxCell>
        <mxCell id="XL8QMf_2bZI47EtoBm4p-86" value="" style="rounded=0;whiteSpace=wrap;html=1;fontColor=#000000;strokeColor=#000000;fillColor=#EDEDED;strokeWidth=0;" vertex="1" parent="XL8QMf_2bZI47EtoBm4p-32">
          <mxGeometry x="30" y="35" width="310" height="245" as="geometry" />
        </mxCell>
        <mxCell id="XL8QMf_2bZI47EtoBm4p-40" value="List commands&lt;br&gt;&amp;lt;&amp;lt;static&amp;gt;&amp;gt;" style="rounded=0;whiteSpace=wrap;html=1;fontColor=#000000;strokeColor=#000000;fillColor=none;align=center;" vertex="1" parent="XL8QMf_2bZI47EtoBm4p-32">
          <mxGeometry x="10" y="310" width="80" height="40" as="geometry" />
        </mxCell>
        <mxCell id="XL8QMf_2bZI47EtoBm4p-50" value="View Music Queue" style="rounded=0;whiteSpace=wrap;html=1;fontColor=#000000;strokeColor=#000000;fillColor=none;" vertex="1" parent="XL8QMf_2bZI47EtoBm4p-32">
          <mxGeometry x="40" y="100" width="100" height="40" as="geometry" />
        </mxCell>
        <mxCell id="XL8QMf_2bZI47EtoBm4p-52" value="Execute music commands" style="rounded=0;whiteSpace=wrap;html=1;fontColor=#000000;strokeColor=#000000;fillColor=none;" vertex="1" parent="XL8QMf_2bZI47EtoBm4p-32">
          <mxGeometry x="40" y="50" width="100" height="40" as="geometry" />
        </mxCell>
        <mxCell id="XL8QMf_2bZI47EtoBm4p-87" style="edgeStyle=none;rounded=0;orthogonalLoop=1;jettySize=auto;html=1;exitX=0;exitY=0.5;exitDx=0;exitDy=0;entryX=0.355;entryY=1.004;entryDx=0;entryDy=0;entryPerimeter=0;fontColor=#000000;endArrow=classic;endFill=1;" edge="1" parent="XL8QMf_2bZI47EtoBm4p-32" source="XL8QMf_2bZI47EtoBm4p-53" target="XL8QMf_2bZI47EtoBm4p-86">
          <mxGeometry relative="1" as="geometry">
            <Array as="points">
              <mxPoint x="140" y="320" />
            </Array>
          </mxGeometry>
        </mxCell>
        <mxCell id="XL8QMf_2bZI47EtoBm4p-88" value="Get user ID and &lt;br&gt;guild IDs" style="edgeLabel;html=1;align=center;verticalAlign=middle;resizable=0;points=[];fontColor=#000000;" vertex="1" connectable="0" parent="XL8QMf_2bZI47EtoBm4p-87">
          <mxGeometry x="-0.046" y="-1" relative="1" as="geometry">
            <mxPoint x="2" y="21" as="offset" />
          </mxGeometry>
        </mxCell>
        <mxCell id="XL8QMf_2bZI47EtoBm4p-53" value="Login with Discord SSO" style="rounded=0;whiteSpace=wrap;html=1;fontColor=#000000;strokeColor=#000000;fillColor=none;" vertex="1" parent="XL8QMf_2bZI47EtoBm4p-32">
          <mxGeometry x="210" y="290" width="120" height="60" as="geometry" />
        </mxCell>
        <mxCell id="XL8QMf_2bZI47EtoBm4p-63" value="Configure/view Counters" style="rounded=0;whiteSpace=wrap;html=1;fontColor=#000000;strokeColor=#000000;fillColor=none;" vertex="1" parent="XL8QMf_2bZI47EtoBm4p-32">
          <mxGeometry x="220" y="40" width="100" height="40" as="geometry" />
        </mxCell>
        <mxCell id="XL8QMf_2bZI47EtoBm4p-79" value="Create playlist from music session" style="rounded=0;whiteSpace=wrap;html=1;fontColor=#000000;strokeColor=#000000;fillColor=none;" vertex="1" parent="XL8QMf_2bZI47EtoBm4p-32">
          <mxGeometry x="40" y="200" width="100" height="40" as="geometry" />
        </mxCell>
        <mxCell id="XL8QMf_2bZI47EtoBm4p-81" value="View past music sessions" style="rounded=0;whiteSpace=wrap;html=1;fontColor=#000000;strokeColor=#000000;fillColor=none;" vertex="1" parent="XL8QMf_2bZI47EtoBm4p-32">
          <mxGeometry x="40" y="150" width="100" height="40" as="geometry" />
        </mxCell>
        <mxCell id="XL8QMf_2bZI47EtoBm4p-89" value="Configure server config" style="rounded=0;whiteSpace=wrap;html=1;fontColor=#000000;strokeColor=#000000;strokeWidth=1;fillColor=none;" vertex="1" parent="XL8QMf_2bZI47EtoBm4p-32">
          <mxGeometry x="220" y="90" width="100" height="40" as="geometry" />
        </mxCell>
        <mxCell id="XL8QMf_2bZI47EtoBm4p-94" value="Link Spotify account" style="rounded=0;whiteSpace=wrap;html=1;fontColor=#000000;strokeColor=#000000;strokeWidth=1;fillColor=none;" vertex="1" parent="XL8QMf_2bZI47EtoBm4p-32">
          <mxGeometry x="220" y="230" width="100" height="40" as="geometry" />
        </mxCell>
        <mxCell id="XL8QMf_2bZI47EtoBm4p-51" style="edgeStyle=none;rounded=0;orthogonalLoop=1;jettySize=auto;html=1;exitX=1;exitY=0.7;exitDx=0;exitDy=0;entryX=0;entryY=0.5;entryDx=0;entryDy=0;dashed=1;fontColor=#000000;" edge="1" parent="1" source="XL8QMf_2bZI47EtoBm4p-1" target="XL8QMf_2bZI47EtoBm4p-50">
          <mxGeometry relative="1" as="geometry" />
        </mxCell>
        <mxCell id="XL8QMf_2bZI47EtoBm4p-78" value="Music (GET)" style="edgeLabel;html=1;align=center;verticalAlign=middle;resizable=0;points=[];fontColor=#000000;" vertex="1" connectable="0" parent="XL8QMf_2bZI47EtoBm4p-51">
          <mxGeometry x="0.2373" y="-2" relative="1" as="geometry">
            <mxPoint x="-28" y="-15" as="offset" />
          </mxGeometry>
        </mxCell>
        <mxCell id="XL8QMf_2bZI47EtoBm4p-82" value="Music (GET)" style="edgeStyle=none;rounded=0;orthogonalLoop=1;jettySize=auto;html=1;exitX=1;exitY=0.7;exitDx=0;exitDy=0;entryX=0;entryY=0.5;entryDx=0;entryDy=0;dashed=1;fontColor=#000000;endArrow=classic;endFill=1;" edge="1" parent="1" source="XL8QMf_2bZI47EtoBm4p-1" target="XL8QMf_2bZI47EtoBm4p-81">
          <mxGeometry x="0.1631" y="-6" relative="1" as="geometry">
            <mxPoint as="offset" />
          </mxGeometry>
        </mxCell>
        <mxCell id="XL8QMf_2bZI47EtoBm4p-64" style="edgeStyle=none;rounded=0;orthogonalLoop=1;jettySize=auto;html=1;exitX=1;exitY=0.5;exitDx=0;exitDy=0;entryX=0;entryY=0.5;entryDx=0;entryDy=0;fontColor=#000000;dashed=1;startArrow=classic;startFill=1;" edge="1" parent="1" source="XL8QMf_2bZI47EtoBm4p-1" target="XL8QMf_2bZI47EtoBm4p-63">
          <mxGeometry relative="1" as="geometry">
            <Array as="points">
              <mxPoint x="300" y="440" />
              <mxPoint x="530" y="440" />
            </Array>
          </mxGeometry>
        </mxCell>
        <mxCell id="XL8QMf_2bZI47EtoBm4p-77" value="Counter &lt;br&gt;(GET/POST/&lt;br&gt;DELETE)" style="edgeLabel;html=1;align=center;verticalAlign=middle;resizable=0;points=[];fontColor=#000000;" vertex="1" connectable="0" parent="XL8QMf_2bZI47EtoBm4p-64">
          <mxGeometry x="-0.2509" y="2" relative="1" as="geometry">
            <mxPoint x="-20" y="2" as="offset" />
          </mxGeometry>
        </mxCell>
        <mxCell id="XL8QMf_2bZI47EtoBm4p-83" value="Music (PUT)" style="edgeStyle=none;rounded=0;orthogonalLoop=1;jettySize=auto;html=1;exitX=0;exitY=0.5;exitDx=0;exitDy=0;entryX=0.85;entryY=0.95;entryDx=0;entryDy=0;entryPerimeter=0;dashed=1;fontColor=#000000;endArrow=classic;endFill=1;" edge="1" parent="1" source="XL8QMf_2bZI47EtoBm4p-79" target="XL8QMf_2bZI47EtoBm4p-1">
          <mxGeometry x="0.0907" y="9" relative="1" as="geometry">
            <mxPoint as="offset" />
          </mxGeometry>
        </mxCell>
        <mxCell id="XL8QMf_2bZI47EtoBm4p-90" style="edgeStyle=none;rounded=0;orthogonalLoop=1;jettySize=auto;html=1;exitX=0.5;exitY=1;exitDx=0;exitDy=0;entryX=0;entryY=0.5;entryDx=0;entryDy=0;fontColor=#000000;startArrow=classic;startFill=1;endArrow=classic;endFill=1;dashed=1;" edge="1" parent="1" source="XL8QMf_2bZI47EtoBm4p-1" target="XL8QMf_2bZI47EtoBm4p-89">
          <mxGeometry relative="1" as="geometry">
            <Array as="points">
              <mxPoint x="270" y="660" />
              <mxPoint x="510" y="660" />
            </Array>
          </mxGeometry>
        </mxCell>
        <mxCell id="XL8QMf_2bZI47EtoBm4p-91" value="Guild (GET/PUT)" style="edgeLabel;html=1;align=center;verticalAlign=middle;resizable=0;points=[];fontColor=#000000;" vertex="1" connectable="0" parent="XL8QMf_2bZI47EtoBm4p-90">
          <mxGeometry x="-0.4" y="-1" relative="1" as="geometry">
            <mxPoint x="-5" y="9" as="offset" />
          </mxGeometry>
        </mxCell>
        <mxCell id="XL8QMf_2bZI47EtoBm4p-92" style="edgeStyle=none;rounded=0;orthogonalLoop=1;jettySize=auto;html=1;exitX=0.25;exitY=1;exitDx=0;exitDy=0;entryX=0.15;entryY=0.95;entryDx=0;entryDy=0;entryPerimeter=0;dashed=1;fontColor=#000000;startArrow=classic;startFill=1;endArrow=classic;endFill=1;" edge="1" parent="1" source="XL8QMf_2bZI47EtoBm4p-53" target="XL8QMf_2bZI47EtoBm4p-1">
          <mxGeometry relative="1" as="geometry">
            <Array as="points">
              <mxPoint x="600" y="800" />
              <mxPoint x="168" y="800" />
            </Array>
          </mxGeometry>
        </mxCell>
        <mxCell id="XL8QMf_2bZI47EtoBm4p-93" value="User (GET/POST/PUT)" style="edgeLabel;html=1;align=center;verticalAlign=middle;resizable=0;points=[];fontColor=#000000;" vertex="1" connectable="0" parent="XL8QMf_2bZI47EtoBm4p-92">
          <mxGeometry x="0.1225" relative="1" as="geometry">
            <mxPoint x="11" y="-10" as="offset" />
          </mxGeometry>
        </mxCell>
        <mxCell id="XL8QMf_2bZI47EtoBm4p-96" value="OAuth2" style="edgeStyle=none;rounded=0;orthogonalLoop=1;jettySize=auto;html=1;exitX=1;exitY=0.5;exitDx=0;exitDy=0;fontColor=#000000;startArrow=classic;startFill=1;endArrow=none;endFill=0;" edge="1" parent="1" source="XL8QMf_2bZI47EtoBm4p-94">
          <mxGeometry x="0.1997" y="10" relative="1" as="geometry">
            <mxPoint x="830" y="650.3333333333335" as="targetPoint" />
            <mxPoint as="offset" />
          </mxGeometry>
        </mxCell>
        <mxCell id="XL8QMf_2bZI47EtoBm4p-97" style="edgeStyle=none;rounded=0;orthogonalLoop=1;jettySize=auto;html=1;exitX=0;exitY=0.5;exitDx=0;exitDy=0;entryX=0.15;entryY=0.95;entryDx=0;entryDy=0;entryPerimeter=0;fontColor=#000000;startArrow=none;startFill=0;endArrow=classic;endFill=1;dashed=1;" edge="1" parent="1" source="XL8QMf_2bZI47EtoBm4p-94" target="XL8QMf_2bZI47EtoBm4p-1">
          <mxGeometry relative="1" as="geometry">
            <Array as="points">
              <mxPoint x="460" y="680" />
              <mxPoint x="230" y="700" />
            </Array>
          </mxGeometry>
        </mxCell>
        <mxCell id="XL8QMf_2bZI47EtoBm4p-98" value="User (PUT)" style="edgeLabel;html=1;align=center;verticalAlign=middle;resizable=0;points=[];fontColor=#000000;" vertex="1" connectable="0" parent="XL8QMf_2bZI47EtoBm4p-97">
          <mxGeometry x="0.2626" y="3" relative="1" as="geometry">
            <mxPoint x="12" y="10" as="offset" />
          </mxGeometry>
        </mxCell>
      </root>
    </mxGraphModel>
  </diagram>
</mxfile>
